<svg width="16" height="14" viewBox="0 0 16 14" fill="none" xmlns="http://www.w3.org/2000/svg">
<path d="M1.4128 0.307911C1.4192 0.316877 1.4544 0.357222 1.488 0.396072C1.7328 0.668026 1.9168 1.11033 2.016 1.66768C2.0816 2.03377 2.0848 2.14883 2.0848 3.54446V4.84446H1.416C0.8048 4.84446 0.7344 4.84147 0.6144 4.81906C0.4256 4.7817 0.2304 4.68159 0.0992 4.55308C-0.0048 4.44998 -0.0016 4.444 0.0048 4.7563C0.0128 5.01481 0.016 5.0432 0.056 5.18366C0.12 5.4063 0.208 5.57216 0.3408 5.7201C0.5216 5.92331 0.7056 6.03688 0.968 6.11308C1.024 6.12803 1.1424 6.134 1.5616 6.13699L2.0848 6.14446V6.79147V7.43998L1.3472 7.4355L0.6064 7.43102L0.4784 7.3832C0.3264 7.32642 0.2576 7.28458 0.1088 7.16056L0 7.06941L0.0064 7.35481C0.0144 7.61929 0.016 7.64918 0.056 7.78366C0.1952 8.25883 0.5312 8.59803 0.9744 8.7086C1.0848 8.73699 1.128 8.73849 1.5904 8.74446L2.0848 8.75044V10.0893C2.0848 10.8977 2.08 11.4939 2.072 11.5955C2.064 11.6881 2.0384 11.8615 2.016 11.9825C1.912 12.5399 1.7248 12.9598 1.456 13.2317L1.4016 13.287H4.1072C5.7248 13.287 6.9344 13.281 7.112 13.2735C7.424 13.2586 8.12 13.1943 8.2768 13.163C8.3264 13.154 8.4192 13.1406 8.48 13.1316C8.6096 13.1137 8.824 13.0718 9.1328 12.9986C9.568 12.897 9.9648 12.77 10.3536 12.6086C10.4752 12.5578 10.824 12.3919 10.9168 12.3396C10.9664 12.3127 11.0256 12.2799 11.048 12.2694C11.1104 12.238 11.2144 12.1753 11.3664 12.0737C11.4416 12.0229 11.5168 11.9735 11.5328 11.9631C11.6 11.9212 11.832 11.7404 11.9376 11.6493C12.3392 11.3041 12.6752 10.9201 12.936 10.5092C12.9728 10.4494 13.0208 10.3747 13.0416 10.3433C13.0944 10.2596 13.312 9.84124 13.3328 9.77849C13.3424 9.7501 13.3552 9.72021 13.3616 9.71423C13.4032 9.66343 13.6432 8.95814 13.672 8.80423C13.6816 8.75492 13.6864 8.74745 13.7264 8.73998C13.752 8.7355 14.1248 8.7355 14.5552 8.73849C15.416 8.74446 15.416 8.74446 15.6064 8.82665C15.7136 8.87297 15.7456 8.89389 15.864 8.994C16.0192 9.124 16.0048 9.14492 15.9952 8.81918C15.9888 8.62791 15.9808 8.50987 15.9664 8.46205C15.912 8.27826 15.8992 8.23941 15.8512 8.14676C15.6944 7.82699 15.432 7.59837 15.096 7.48929L14.9648 7.44446L14.4304 7.43849L13.8976 7.43102L13.904 7.25619C13.9104 7.02607 13.9104 6.57033 13.9024 6.33573L13.896 6.14745L14.6096 6.14446C15.2208 6.14147 15.3344 6.14446 15.4016 6.1609C15.6032 6.2132 15.7392 6.28492 15.9056 6.42688L15.9984 6.50757V6.28642C15.9984 6.02343 15.984 5.90688 15.9264 5.73354C15.8128 5.38239 15.5888 5.1209 15.2688 4.95952C15.0608 4.85492 15.048 4.85193 14.3328 4.84745C13.9136 4.84446 13.6944 4.83849 13.6832 4.82952C13.6736 4.82056 13.6656 4.80561 13.6656 4.79366C13.6656 4.7817 13.6416 4.68757 13.6096 4.58596C13.2352 3.35021 12.536 2.36849 11.5136 1.64078C11.3744 1.54067 11.0336 1.32998 10.896 1.25826C10.8432 1.22987 10.7856 1.19998 10.7712 1.19101C10.704 1.15665 10.3184 0.980325 10.2224 0.942969C10.1648 0.919061 10.0896 0.889176 10.056 0.877222C9.4912 0.648601 8.544 0.431934 7.8208 0.364693C7.7024 0.354233 7.5456 0.337796 7.4736 0.331819C7.1472 0.297452 6.6944 0.292969 4.1232 0.292969C1.9504 0.292969 1.4048 0.297452 1.4128 0.307911ZM6.704 0.954923C7.2448 0.984808 7.5776 1.02366 7.9664 1.11182C9.1536 1.37481 9.9888 1.93067 10.5952 2.8601C10.6512 2.94676 10.888 3.39803 10.9232 3.48918C11.0912 3.91205 11.1728 4.16308 11.2448 4.49481C11.2624 4.5755 11.2864 4.68308 11.2976 4.73389C11.3088 4.7832 11.3136 4.82952 11.3088 4.834C11.3008 4.83998 9.6944 4.84297 7.736 4.84147L4.176 4.83849L4.1712 2.91837C4.1696 1.86343 4.1712 0.986302 4.176 0.969865L4.1824 0.941475H5.32C5.944 0.941475 6.568 0.947452 6.704 0.954923ZM11.464 6.18929C11.4752 6.25354 11.4752 7.34435 11.464 7.39814L11.4544 7.43849L7.8144 7.4355L4.176 7.43102L4.1728 6.79745C4.1696 6.44929 4.1728 6.15941 4.176 6.15343C4.1808 6.14596 5.7312 6.14147 7.8192 6.14147H11.4544L11.464 6.18929ZM11.3008 8.75492C11.3088 8.77734 11.2704 8.96113 11.192 9.25998C11.1024 9.59619 10.9808 9.93538 10.8576 10.1864C10.7968 10.3149 10.6448 10.5929 10.608 10.6452C10.5904 10.6691 10.5392 10.7453 10.4944 10.8125C10.2064 11.2339 9.7952 11.6179 9.3264 11.9018C9.1552 12.0034 8.8032 12.1768 8.7088 12.2037C8.6896 12.2081 8.6688 12.2171 8.6608 12.2231C8.6496 12.232 8.504 12.2829 8.3344 12.3396C8.0224 12.4427 7.4288 12.5548 6.952 12.6011C6.6432 12.6295 6.5936 12.631 5.4048 12.631H4.1744V10.693V8.75343L7.7088 8.74745C9.6528 8.74446 11.2544 8.73998 11.2672 8.73699C11.2816 8.7355 11.296 8.74446 11.3008 8.75492Z" fill="#B1BACD"/>
</svg>
