<svg width="251" height="150" viewBox="0 0 251 150" fill="none" xmlns="http://www.w3.org/2000/svg">
<path d="M136.5 57C140.366 57 143.5 60.134 143.5 64C143.5 67.866 140.366 71 136.5 71H200.5C204.366 71 207.5 74.134 207.5 78C207.5 81.866 204.366 85 200.5 85H222.5C226.366 85 229.5 88.134 229.5 92C229.5 95.866 226.366 99 222.5 99H203.5C199.634 99 196.5 102.134 196.5 106C196.5 109.866 199.634 113 203.5 113H209.5C213.366 113 216.5 116.134 216.5 120C216.5 123.866 213.366 127 209.5 127H157.5C156.985 127 156.483 126.944 156 126.839C155.517 126.944 155.015 127 154.5 127H63.5C59.634 127 56.5 123.866 56.5 120C56.5 116.134 59.634 113 63.5 113H24.5C20.634 113 17.5 109.866 17.5 106C17.5 102.134 20.634 99 24.5 99H64.5C68.366 99 71.5 95.866 71.5 92C71.5 88.134 68.366 85 64.5 85H39.5C35.634 85 32.5 81.866 32.5 78C32.5 74.134 35.634 71 39.5 71H79.5C75.634 71 72.5 67.866 72.5 64C72.5 60.134 75.634 57 79.5 57H136.5ZM226.5 113C230.366 113 233.5 116.134 233.5 120C233.5 123.866 230.366 127 226.5 127C222.634 127 219.5 123.866 219.5 120C219.5 116.134 222.634 113 226.5 113Z" fill="#D0D5DD"/>
<path fill-rule="evenodd" clip-rule="evenodd" d="M113.619 89.3066C113.54 89.8599 113.5 90.4252 113.5 91C113.5 97.6274 118.873 103 125.5 103C132.127 103 137.5 97.6274 137.5 91C137.5 90.4252 137.46 89.8599 137.381 89.3066H166.5V116C166.5 117.657 165.157 119 163.5 119H87.5C85.8431 119 84.5 117.657 84.5 116V89.3066H113.619Z" fill="white"/>
<path fill-rule="evenodd" clip-rule="evenodd" d="M138.5 89C138.5 96.1797 132.68 102 125.5 102C118.32 102 112.5 96.1797 112.5 89C112.5 88.7674 112.506 88.5362 112.518 88.3066H84.5L94.0604 60.0389C94.4726 58.8202 95.6159 58 96.9023 58H154.098C155.384 58 156.527 58.8202 156.94 60.0389L166.5 88.3066H138.482C138.494 88.5362 138.5 88.7674 138.5 89Z" fill="white"/>
<path fill-rule="evenodd" clip-rule="evenodd" d="M136.598 89.9545C136.598 95.5025 131.629 101 125.5 101C119.371 101 114.402 95.5025 114.402 89.9545C114.402 89.7748 114.408 88.5962 114.418 88.4188H93.5L101.661 68.5755C102.013 67.6338 102.989 67 104.087 67H146.913C148.011 67 148.987 67.6338 149.339 68.5755L157.5 88.4188H136.582C136.592 88.5962 136.598 89.7748 136.598 89.9545Z" fill="#F2F4F7"/>
<path fill-rule="evenodd" clip-rule="evenodd" d="M85.75 88.5123V115C85.75 115.966 86.5335 116.75 87.5 116.75H163.5C164.466 116.75 165.25 115.966 165.25 115V88.5123L155.755 60.4393C155.515 59.7285 154.848 59.25 154.098 59.25H96.9023C96.1519 59.25 95.485 59.7285 95.2446 60.4393L85.75 88.5123Z" stroke="#667085" stroke-width="2.5"/>
<path d="M98.5 88C102.437 88 106.685 88 111.245 88C113.121 88 113.121 89.3186 113.121 90C113.121 96.6274 118.617 102 125.397 102C132.177 102 137.673 96.6274 137.673 90C137.673 89.3186 137.673 88 139.55 88H164.5M91.0737 88H93.5H91.0737Z" stroke="#667085" stroke-width="2.5" stroke-linecap="round" stroke-linejoin="round"/>
<path d="M150.6 35.3027L139.5 47.7559M124.6 31V47.7559V31ZM98.5 35.3027L109.6 47.7559L98.5 35.3027Z" stroke="#304571" stroke-width="2.5" stroke-linecap="round" stroke-linejoin="round"/>
</svg>
