<svg width="158" height="165" viewBox="0 0 158 165" fill="none" xmlns="http://www.w3.org/2000/svg">
<path d="M111.335 143.938C110.176 144.594 108.998 145.215 107.801 145.798C107.608 145.892 107.422 145.995 107.243 146.106C107.052 146.173 106.862 146.25 106.673 146.337C101.55 148.73 96.1352 150.441 90.5674 151.427C90.4964 151.437 90.4254 151.441 90.3537 151.454C89.0451 151.685 87.7134 151.878 86.3962 152.029C86.382 152.031 86.3674 152.035 86.3531 152.036C83.9169 152.305 81.4678 152.44 79.0169 152.439C50.5196 152.439 26.2166 134.154 17.2119 108.702C17.0764 108.314 16.9398 107.926 16.811 107.537C14.6525 101.047 13.4801 94.1097 13.4801 86.9033C13.4801 79.6819 14.6576 72.7297 16.8252 66.2271C16.8725 66.0851 16.918 65.944 16.9659 65.8017C17.0954 65.4231 17.2293 65.0459 17.3659 64.6697C17.4294 64.493 17.4936 64.3174 17.5589 64.142C25.0415 44.0021 42.1572 28.5083 63.2775 23.2824C63.2907 23.2793 63.3043 23.2783 63.3176 23.2752C63.6299 23.1978 63.9445 23.1223 64.2596 23.0496C64.2949 23.0418 64.3289 23.0289 64.3629 23.0204C69.0593 21.946 73.86 21.393 78.6778 21.3713L78.7345 28.1094C78.7518 30.2013 80.0727 30.8055 81.6678 29.4534L95.9011 17.3887C97.4958 16.0366 97.4789 13.8444 95.8593 12.5192L81.4262 0.695087C79.808 -0.629839 78.4983 -0.00356606 78.516 2.08798L78.5728 8.81285C57.8782 8.92737 38.44 17.036 23.7938 31.6815C22.3594 33.1167 20.9804 34.6063 19.6599 36.147C19.6521 36.1558 19.644 36.1629 19.6358 36.1725C19.5872 36.2289 19.5413 36.2876 19.4934 36.3441C7.96532 49.8716 1.46609 66.7317 0.956028 84.6181C0.943455 84.757 0.928503 84.895 0.925105 85.037C0.888306 86.6258 0.900318 88.2153 0.961125 89.8032C0.965203 89.9184 0.980155 90.0309 0.991368 90.1441C1.65196 106.441 7.28706 121.849 17.1735 134.61C17.2072 134.654 17.234 134.701 17.268 134.745C18.2405 135.999 19.2513 137.223 20.2991 138.414C20.3664 138.491 20.4402 138.557 20.5095 138.63C21.5691 139.828 22.6645 140.993 23.7941 142.125C35.3895 153.721 49.9895 161.218 65.8376 163.896L65.9827 163.923C66.0188 163.929 66.0544 163.931 66.0898 163.937C70.3624 164.644 74.686 165 79.0169 165C90.5301 165 101.62 162.55 111.98 157.721C112.2 157.617 112.413 157.501 112.62 157.372C112.853 157.291 113.082 157.196 113.305 157.087C114.733 156.391 116.139 155.651 117.522 154.869C120.541 153.159 121.603 149.328 119.894 146.31C118.184 143.291 114.352 142.23 111.335 143.938ZM133.436 50.3511C134.648 52.1552 136.633 53.1287 138.654 53.1287C139.858 53.1287 141.077 52.7831 142.151 52.0607C145.03 50.1261 145.795 46.2248 143.86 43.3459C142.974 42.0273 142.048 40.7364 141.082 39.4751C138.975 36.7199 135.034 36.1959 132.279 38.3027C129.525 40.4102 129 44.3521 131.108 47.1062C131.917 48.1641 132.693 49.2462 133.436 50.3511ZM141.412 66.8439C141.818 68.1138 142.186 69.3956 142.515 70.6875C143.239 73.5283 145.794 75.418 148.596 75.418C149.109 75.418 149.632 75.3544 150.152 75.2219C153.513 74.3656 155.543 70.9461 154.686 67.5857C154.295 66.0486 153.857 64.5237 153.373 63.0132C152.316 59.7102 148.781 57.8891 145.478 58.9473C142.174 60.0055 140.354 63.5409 141.412 66.8439ZM137.411 129.176C134.787 126.908 130.822 127.196 128.554 129.819C127.682 130.827 126.78 131.808 125.849 132.761C123.425 135.242 123.471 139.218 125.953 141.642C127.124 142.79 128.7 143.433 130.341 143.431C131.178 143.432 132.007 143.265 132.779 142.94C133.55 142.615 134.249 142.139 134.833 141.539C135.942 140.404 137.017 139.235 138.054 138.035C140.322 135.41 140.035 131.444 137.411 129.176ZM151.004 82.8245C147.532 82.7202 144.642 85.4475 144.54 88.914C144.5 90.2465 144.419 91.5775 144.297 92.905C143.98 96.3586 146.523 99.4158 149.977 99.7329C150.17 99.7506 150.364 99.7595 150.558 99.7594C153.766 99.7594 156.506 97.3117 156.805 94.0533C156.949 92.4769 157.047 90.8747 157.094 89.2894C157.196 85.8237 154.471 82.9282 151.004 82.8245ZM148.211 107.177C144.98 105.912 141.338 107.505 140.073 110.736C139.587 111.978 139.063 113.205 138.502 114.415C137.044 117.562 138.414 121.294 141.561 122.752C142.386 123.136 143.286 123.336 144.197 123.336C146.568 123.336 148.837 121.987 149.899 119.694C150.566 118.254 151.19 116.793 151.769 115.315C153.034 112.085 151.441 108.442 148.211 107.177ZM126.824 32.9408C128.889 30.153 128.303 26.2204 125.515 24.1564C124.239 23.2118 122.934 22.3061 121.603 21.4406C118.696 19.5502 114.806 20.3739 112.915 23.2817C111.025 26.1891 111.849 30.0786 114.756 31.9697C115.874 32.6965 116.97 33.4572 118.041 34.2508C119.121 35.0523 120.429 35.4847 121.774 35.484C123.696 35.484 125.593 34.6042 126.824 32.9408Z" fill="#642329"/>
</svg>
